<?xml version="1.0" encoding="UTF-8"?>
<svg width="16px" height="16px" viewBox="0 0 16 16" version="1.1" xmlns="http://www.w3.org/2000/svg" xmlns:xlink="http://www.w3.org/1999/xlink">
    <!-- Generator: Sketch 62 (91390) - https://sketch.com -->
    <title>Group 13</title>
    <desc>Created with Sketch.</desc>
    <g id="Catalog" stroke="none" stroke-width="1" fill="none" fill-rule="evenodd">
        <g id="Group-13" transform="translate(-4.000000, -4.000000)">
            <path d="M15.7333333,7.2 C16.3733333,7.2 16.8,6.66666667 16.8,6.13333333 L16.8,5.06666667 C16.8,4.42666667 16.3733333,4 15.7333333,4 C15.0933333,4 14.6666667,4.42666667 14.6666667,5.06666667 L14.6666667,6.13333333 C14.6666667,6.66666667 15.0933333,7.2 15.7333333,7.2 Z M18.9333333,5.06666667 L17.8666667,5.06666667 L17.8666667,6.13333333 C17.8666667,7.30666667 16.9066667,8.26666667 15.7333333,8.26666667 C14.56,8.26666667 13.6,7.30666667 13.6,6.13333333 L13.6,5.06666667 L10.4,5.06666667 L10.4,6.13333333 C10.4,7.30666667 9.44,8.26666667 8.26666667,8.26666667 C7.09333333,8.26666667 6.13333333,7.30666667 6.13333333,6.13333333 L6.13333333,5.06666667 L5.06666667,5.06666667 C4.42666667,5.06666667 4,5.6 4,6.13333333 L4,18.9333333 C4,19.5733333 4.42666667,20 5.06666667,20 L18.9333333,20 C19.5733333,20 20,19.5733333 20,18.9333333 L20,6.13333333 C20,5.49333333 19.4666667,5.06666667 18.9333333,5.06666667 Z M9.33333333,17.8666667 L6.13333333,17.8666667 L6.13333333,14.6666667 L9.33333333,14.6666667 L9.33333333,17.8666667 Z M9.33333333,13.6 L6.13333333,13.6 L6.13333333,10.4 L9.33333333,10.4 L9.33333333,13.6 Z M13.6,17.8666667 L10.4,17.8666667 L10.4,14.6666667 L13.6,14.6666667 L13.6,17.8666667 Z M13.6,13.6 L10.4,13.6 L10.4,10.4 L13.6,10.4 L13.6,13.6 Z M17.8666667,17.8666667 L14.6666667,17.8666667 L14.6666667,14.6666667 L17.8666667,14.6666667 L17.8666667,17.8666667 Z M17.8666667,13.6 L14.6666667,13.6 L14.6666667,10.4 L17.8666667,10.4 L17.8666667,13.6 Z M8.26666667,7.2 C8.90666667,7.2 9.33333333,6.66666667 9.33333333,6.13333333 L9.33333333,5.06666667 C9.33333333,4.42666667 8.90666667,4 8.26666667,4 C7.62666667,4 7.2,4.42666667 7.2,5.06666667 L7.2,6.13333333 C7.2,6.66666667 7.62666667,7.2 8.26666667,7.2 Z" id="Shape" fill="#FB7221" fill-rule="nonzero"></path>
            <polygon id="Path" points="0 0 24 0 24 24 0 24"></polygon>
        </g>
    </g>
</svg>